<svg xmlns="http://www.w3.org/2000/svg" version="1.1" xmlns:xlink="http://www.w3.org/1999/xlink" width="1000" height="1000"><style>
    #light-icon {
      display: inline;
    }
    #dark-icon {
      display: none;
    }

    @media (prefers-color-scheme: dark) {
      #light-icon {
        display: none;
      }
      #dark-icon {
        display: inline;
      }
    }
  </style><g id="light-icon"><svg xmlns="http://www.w3.org/2000/svg" version="1.1" xmlns:xlink="http://www.w3.org/1999/xlink" width="1000" height="1000"><g><g transform="matrix(1.953125,0,0,1.953125,0,0)"><svg xmlns="http://www.w3.org/2000/svg" version="1.1" xmlns:xlink="http://www.w3.org/1999/xlink" width="512" height="512"><svg version="1.1" id="Layer_1" xmlns="http://www.w3.org/2000/svg" xmlns:xlink="http://www.w3.org/1999/xlink" x="0px" y="0px" viewBox="0 0 512 512" style="enable-background:new 0 0 512 512;" xml:space="preserve">
<g>
	<path style="fill:#231F20;" d="M145.8049316,164.4997711h220.3901367c39.7120667,0,63.6321411,0,79.656311,5.5736084
		c25.3135071,9.2893677,45.2856445,29.2615051,54.5750122,54.5750275C504.1421509,234.6344604,506,245.3172302,506,256
		s-1.8578796,21.1333008-5.5736084,31.351593c-9.2893677,25.3135376-29.2615051,45.2856445-54.5750122,54.5750122
		c-16.0241394,5.5736389-39.7120361,5.5736389-79.656311,5.5736389H145.8049316c-39.7120438,0-63.6321487,0-79.6563034-5.5736389
		c-25.3135109-9.2893677-45.2856445-29.2614746-54.5750084-54.5750122C7.857873,277.3655396,6,266.6827698,6,256
		s1.8578725-21.133316,5.5736189-31.3516083c9.2893629-25.3135071,29.4937286-45.2856445,54.8072472-54.5750122
		C82.1727829,164.4997711,106.0928955,164.4997711,145.8049316,164.4997711z"></path>
	<path style="fill:#FFFFF0;" d="M136.9800262,177.5048828h59.9164124c34.1383972,0,54.5750122,0,68.2768402,4.6446686
		c21.8299866,7.8959656,39.0152893,25.0812988,46.9112854,46.9113007c3.019043,8.5926514,4.6446838,17.6497803,4.6446838,26.9391479
		s-1.6256409,18.1142578-4.6446838,26.9391785c-7.8959656,21.8299866-25.0812988,39.0153198-46.9112854,46.9112549
		c-13.7018127,4.6446838-34.1383972,4.6446838-68.276825,4.6446838h-59.9163971c-34.1384125,0-54.5750122,0-68.276825-4.6446838
		c-21.8300018-7.8959656-39.0153236-25.0812683-46.9112854-46.9112854
		C18.7729015,274.3464966,17.1472626,265.2893677,17.1472626,256c0-9.2893829,1.625639-18.1142578,4.6446819-26.9391632
		c7.8959579-21.8300018,25.0812817-39.0153198,46.9112854-46.9112854
		c13.7018127-4.6446838,34.1384125-4.6446838,68.276825-4.6446838L136.9800262,177.5048828z"></path>
	<path style="fill:#FFFFF0;" d="M358.5313416,273.417572c4.4124451-1.3934021,4.8769226-4.4124756,4.6446838-8.3604431v-17.4175568
		c0-2.7868042,0-5.8058472-2.3223267-7.6637115c-1.6256409-1.1611786-5.3414001-2.5545807-6.7347717-0.4644775
		c-0.4644775,0.696701-0.2322693,3.2512817-0.4644775,4.8769226v25.0812683c0,3.7157593,0.9289246,4.6446838,4.6446838,3.947998l0,0
		H358.5313416z M349.7064819,233.4732971c2.3223267-0.4644775,5.8058472-0.2322388,8.3604431,0
		c4.4124451,0.2322388,8.1282043,3.2512665,9.5216064,7.1992493c1.1611633,3.2512817,0.6967163,6.2703247,0.6967163,9.5215912
		v12.0761871c0,3.2512817,0,6.7347717-0.6967163,9.0571289c-1.3934021,4.1802063-4.8769226,7.1992493-9.5216064,7.431488
		c-1.6256409,0-3.4835205,0-5.1091614,0c-2.7867737,0-4.6446533,0-4.6446533-2.7868042v-40.4087372
		c0-0.9289398,0-1.8578644,1.1611633-2.0901031l0,0H349.7064819z"></path>
	<path style="fill:#FFFFF0;" d="M378.2712402,253.9098969c1.1611633-3.019043,5.1091614-4.4124603,7.6637268-2.0901184
		c3.7157593,3.019043,1.8578796,9.9860687-3.2512512,9.75383c-3.7157593,0-5.8058472-4.4124451-4.4124451-7.431488l0,0
		L378.2712402,253.9098969z"></path>
	<path style="fill:#FFFFF0;" d="M412.8741455,253.9098969c1.1611633-3.019043,5.1091309-4.4124603,7.6637268-2.0901184
		c3.7157593,3.019043,1.8578796,9.9860687-3.2512512,9.75383c-3.7157593,0-5.8058472-4.4124451-4.4124451-7.431488l0,0
		L412.8741455,253.9098969z"></path>
	<path style="fill:#FFFFF0;" d="M398.940094,233.2410583c1.1611633-0.4644623,2.7868042,0,3.4835205,0.696701
		c0.2322388,0.4644775,0.2322388,1.3934021,0.2322388,2.0901031v40.8731995c0,2.3223572-4.1802063,2.7868042-4.8769226,0.6967163
		c0-0.2322388,0-0.6967163,0-1.1611938v-39.0153198c0-2.3223419-0.2322388-3.4835052,1.3934326-4.1802063l0,0H398.940094z"></path>
	<path style="fill:#FFFFF0;" d="M435.8652954,233.9377594c1.6256409,0.9289398,2.3223572,2.7868195,3.0190735,4.4124451
		c0.9289246,2.3223419,1.6256104,4.8769226,2.3223267,6.0381012c0,0,0.2322388,0.4644623,0.4644775,0.696701
		c1.1611633,0.4644623,2.0900879-3.4835205,2.5545654-4.8769226c0.4644775-1.6256409,1.1611938-3.2512817,1.8578796-4.6446838
		c1.6256409-2.5545807,5.5736084-3.4835052,5.5736084-0.2322388c0,2.0901031-1.1611633,3.9479828-1.8578796,6.2703247
		c-1.6256104,4.8769073-3.7157593,9.9860687-4.8769226,14.6307526c-0.464447,5.5736084,0,12.0761719,0,17.882019
		c0,1.6256409,0,3.947998-1.8578796,4.6446838c-1.8578796,0.9289551-3.4835205-0.6966858-3.7157593-2.7868042
		c-0.464447-6.5025635,0.2322388-14.1662903-0.464447-20.2043762c-1.6256409-5.8058472-4.4124451-13.0050964-6.2703247-18.5787201
		c0-0.696701-0.4644775-1.6256409-0.4644775-2.5545807c0-1.6256409,1.8578796-2.0901031,3.7157593-0.9289398l0,0V233.9377594z"></path>
	<path style="fill:#231F20;" d="M102.3771439,228.1319122c7.8959656-1.8578644,6.5025558,4.6446838,3.9479828,9.5215912
		c-2.3223419,5.1091614-5.1091461,12.0761719-7.431488,17.417572c-1.3934021,3.019043-2.5545731,5.8058472-3.9479828,9.2893677
		c-2.5545731,5.8058472-4.1802139,11.6116943-9.9860687,11.8439331c-9.9860611,0.2322388-11.611702-14.8629761-16.024147-22.9911804
		c-2.5545807-6.2703247-5.5736198-12.7728729-7.8959618-18.8109589c-0.4644699-1.3934174-0.9289322-3.2512817-0.232235-4.6446838
		c0.928936-2.3223419,5.1091537-2.3223419,7.6637268-0.4644775c6.2703171,6.0380859,8.3604279,16.4886169,12.3084106,23.9201202
		c1.161171,2.7868042,3.4835052,8.3604126,5.8058472,3.9479675c2.7868118-5.1091461,6.5025558-15.0951996,9.5215988-21.8299866
		c1.3934021-2.7868195,3.019043-5.5736237,6.0380783-6.9670258h0.4644699l0,0L102.3771439,228.1319122z"></path>
	<path style="fill:#231F20;" d="M116.0789642,275.5076599c-0.4644699,0-0.696701-0.4644775-0.9289398-0.9289246
		c-0.2322311-6.2703247,0-17.1853333,0-24.8490601v-20.2043762c0-1.8578644,2.3223419-1.6256409,3.9479828-1.8578644
		c2.5545654,0,6.0380783-0.4644775,5.573616,3.2512817v42.7310638c0.4644699,3.4835205-6.2703171,2.3223572-8.1281891,2.0901184
		h-0.2322311L116.0789642,275.5076599z"></path>
	<path style="fill:#231F20;" d="M171.5829163,263.8959656c2.7868042-4.1802063-2.0901031-7.8959656-6.2703094-7.431488
		c-6.5025635,0-12.7728729,0-19.2754364,0c-2.5545654,0-2.7868042,3.019043-2.7868042,4.8768921
		c0,1.8578796,0,3.7157593,1.6256409,4.4124451c4.4124451,0.4644775,12.7728729,0,17.6497955,0
		c3.4835052,0,6.734787,0,8.5926514-1.8578491h0.2322388H171.5829163z M171.5829163,244.3883057
		c2.3223419-3.4835205-1.3934021-7.8959656-5.3413849-7.4315033c-5.5736237,0-13.9340515,0-19.9721375,0
		c-4.4124451-0.2322388-3.4835052,7.4315033-2.3223419,9.0571442c2.0901184,1.6256256,4.8769226,0.4644623,8.8248901,0.6966858
		c5.5736237-0.6966858,14.6307526,1.6256409,18.5787506-1.8578644h0.2322235V244.3883057z M181.8012238,242.2981873
		c-0.2322388,3.019043-2.5545807,6.2703247-2.3223419,9.2893677c0,4.8769226,2.5545654,9.7538452,1.1611633,14.3984985
		c-4.6446838,12.3084106-20.6688385,9.2893677-31.1193695,9.7538452c-3.4835052,0-7.6637268,0-10.9150085-0.4644775
		c-4.1802063-0.464447-5.1091461-4.1802063-5.1091461-7.8959656v-32.7449951c0-3.019043,1.1611633-5.5736237,4.1802063-6.5025482
		c3.9479828-1.1611786,8.3604279-0.696701,12.3084106-0.696701c12.0761719,0,30.4226685-1.8578796,31.5838318,14.3985138v0.4644623
		l0,0H181.8012238z"></path>
	<path style="fill:#231F20;" d="M218.7264252,241.1370239c-4.1802216,3.0190277-11.8439331-1.8578796-16.4886169-0.4644775
		c-3.715744,1.1611786-3.019043,5.5736237-0.2322235,7.431488c3.019043,2.7868195,9.9860687,2.7868195,13.7018127,5.3413849
		c3.715744,2.0901184,4.6446838,7.8959808-0.9289398,8.3604279c-1.6256409,0-3.9479828-0.2322388-6.2703094-0.6966858
		c-6.7348022-2.0901184-12.7728882,2.0900879-6.2703247,7.6636963c3.715744,3.019043,12.7728729,2.7868347,15.7919312,6.0380859
		c3.715744,3.4835205,3.2512817,11.8439331-3.9479675,9.986084c-5.1091461-1.1611938-15.3274536-3.2512817-20.6688385-4.6446838
		c-2.3223419-0.6967163-3.4835205-1.3934021-3.715744-3.7157593c-0.4644623-9.7538147,0-34.8350983,0-44.5889435
		c0-4.1802063,1.6256256-4.4124451,5.3413849-3.715744c4.4124603,0.9289398,12.7728729,2.7868195,18.1142731,3.9479828
		c4.1802216,0.4644775,9.5215912,4.6446838,6.2703094,8.8249054l0,0L218.7264252,241.1370239z"></path>
	<path style="fill:#231F20;" d="M259.3674011,247.1751099c10.914978,0.9289398,17.882019,14.3985291,9.7538147,22.7589417
		c-5.5736084,6.7348022-17.6497803,5.5736084-26.4746857,5.5736084c-7.1992493,0-12.7728729-1.8578491-16.2563934-7.1992493
		c-0.9289398-1.3934021-1.3934021-3.2512817-0.696701-4.6446838c3.4835052-4.1802063,10.2183075,1.3934021,15.3274384,1.6256409
		c4.8769226,0.4644775,20.901062,2.3223572,20.2043762-4.8768921c-0.2322388-1.8578796-3.0190735-3.4835205-7.1992645-3.947998
		C242.8787384,256,226.3901215,257.6256409,224.3000183,243.4593811
		c-1.3934021-9.7538452,8.1281891-16.2563934,17.185318-16.0241547c9.986084,0,28.1003265-2.0901031,29.9582062,10.6827698
		c-1.8578796,5.3413849-8.8248901,0.696701-12.5406494,0c-4.8769073-1.3934021-20.204361-2.7868195-22.9911804,2.0901031
		c-2.3223419,9.2893677,17.882019,5.3413849,22.9911804,6.9670258h0.4644775L259.3674011,247.1751099z"></path>
</g>
<g>
</g>
<g>
</g>
<g>
</g>
<g>
</g>
<g>
</g>
<g>
</g>
<g>
</g>
<g>
</g>
<g>
</g>
<g>
</g>
<g>
</g>
<g>
</g>
<g>
</g>
<g>
</g>
<g>
</g>
</svg></svg></g></g></svg></g><g id="dark-icon"><svg xmlns="http://www.w3.org/2000/svg" version="1.1" xmlns:xlink="http://www.w3.org/1999/xlink" width="1000" height="1000"><g><g transform="matrix(1.953125,0,0,1.953125,0,0)"><svg xmlns="http://www.w3.org/2000/svg" version="1.1" xmlns:xlink="http://www.w3.org/1999/xlink" width="512" height="512"><svg version="1.1" id="Layer_1" xmlns="http://www.w3.org/2000/svg" xmlns:xlink="http://www.w3.org/1999/xlink" x="0px" y="0px" viewBox="0 0 512 512" style="enable-background:new 0 0 512 512;" xml:space="preserve">
<g>
	<path style="fill:#231F20;" d="M145.8126526,164.6651001h220.3746948c39.8126526,0,63.7002258,0,79.6253052,5.6206055
		c25.2927551,9.1334991,45.4332275,29.2740173,54.5667419,54.5667572C504.1264954,234.9227142,506,245.4613647,506,256
		s-1.8735352,21.3114624-5.6206055,31.1475525c-9.1334534,25.2927246-29.2739868,45.4332275-54.5667419,54.5667419
		c-15.9250793,5.6206055-39.8126526,5.6206055-79.6253052,5.6206055H145.8126526c-39.8126526,0-63.7002411,0-79.6252975-5.6206055
		c-25.2927437-9.1335144-45.4332581-29.2740173-54.5667458-54.5667419C7.8735366,277.0772705,6,266.5386353,6,256
		s1.8735366-21.3114777,5.6206093-31.1475372c9.3676834-25.5269318,29.2740059-45.4332581,54.8009453-54.5667572
		C82.346611,164.6651001,106.2341995,164.6651001,145.8126526,164.6651001z"></path>
	<path style="fill:#FFFFF0;" d="M392.4168701,177.5456696c18.7353516,0,41.4519653,0.7025757,51.0538635,4.6838379
		c21.7798767,7.9625244,38.875885,25.058548,46.8384094,46.8384094C493.3536377,237.733017,494.992981,246.6323242,494.992981,256
		s-1.6393433,18.2669678-4.6838379,26.9320984c-7.9625244,21.7798462-25.0585327,38.8758545-46.8384094,46.8384094
		c-9.6018982,3.9812317-32.318512,4.6838379-51.0538635,4.6838379c-18.7353821,0-41.4519958-0.7026062-51.053894-4.6838379
		c-21.7798462-7.9625549-38.8758545-25.0585632-46.8384094-46.8384094
		c-3.0444946-8.6651306-4.6838379-17.5644226-4.6838379-26.9320984s1.6393433-18.266983,4.6838379-26.9320831
		c7.9625549-21.7798615,25.0585632-38.875885,46.8384094-46.8384094
		C350.9648743,178.2482452,373.681488,177.5456696,392.4168701,177.5456696z"></path>
	<path style="fill:#231F20;" d="M358.4590149,273.3302002c4.2154541-1.4051208,4.9180603-4.449646,4.6838379-8.4309082v-17.3302002
		c0-2.8103027,0-5.8547974-2.3419189-7.7283325c-1.6393433-1.1709595-5.3864136-2.5761108-6.7915649-0.4683838
		c-0.4683533,0.7025604-0.2341919,3.2786865-0.4683533,4.9180298v25.0585327c0,3.7470703,0.9367371,4.6838379,4.4496155,3.9812622
		l0,0H358.4590149z M349.7939148,233.5175629c2.3419189-0.4683838,5.6206055-0.2341919,8.4309387,0
		c4.2154541,0.2341919,8.1967163,3.0444946,9.3676758,7.0257721c1.1709595,3.2786865,0.7025757,6.0889893,0.7025757,9.6018677
		v11.9437866c0,3.2786865,0,6.7915649-0.7025757,9.1334839c-1.4051819,4.2154541-4.9180603,7.0257568-9.6018982,7.4941711
		c-1.6393433,0-3.5128784,0-5.1522217,0c-2.8103027,0-4.6838379,0-4.4496155-2.8103333v-40.515213
		c0-0.9367676,0-1.8735352,1.1709595-2.1077271l0,0L349.7939148,233.5175629z"></path>
	<path style="fill:#231F20;" d="M378.3653259,253.8922729c1.1709595-3.0444946,5.1522217-4.2154541,7.728363-2.1077423
		c3.7470703,3.0444946,1.8735352,9.8360748-3.2786865,9.8360748c-3.7470703,0-5.6206055-4.2154541-4.2154541-7.4941559l0,0
		L378.3653259,253.8922729z"></path>
	<path style="fill:#231F20;" d="M412.7915955,253.8922729c1.1709595-3.0444946,5.1522217-4.2154541,7.7283325-2.1077423
		c3.7471008,3.0444946,1.8735657,9.8360748-3.278656,9.8360748c-3.7471008,0-5.6206055-4.2154541-4.2154846-7.4941559l0,0
		L412.7915955,253.8922729z"></path>
	<path style="fill:#231F20;" d="M398.9742432,233.283371c1.1709595-0.4683838,2.8103027,0,3.5128784,0.7025757
		c0.2342224,0.4683838,0.2342224,1.4051514,0.2342224,2.1077271v40.7494049c0,2.3419189-4.2154846,2.8103027-4.9180603,0.7025757
		c0-0.2341919,0-0.7025757,0-1.1709595v-39.1100616c0-2.3419189-0.2341919-3.5128937,1.4051514-4.2154541l0,0
		L398.9742432,233.283371z"></path>
	<path style="fill:#231F20;" d="M435.7424011,233.9859467c1.4051514,0.9367676,2.3419189,2.8103027,3.0444946,4.449646
		c0.9367371,2.3419189,1.6393433,4.9180298,2.3419189,6.0889893c0,0,0.2341919,0.4683838,0.4683838,0.7025757
		c1.1709595,0.4683838,2.1076965-3.5128784,2.5761108-4.9180298c0.4683838-1.4051514,1.1709595-3.0444946,1.8735352-4.449646
		c1.6393433-2.5761108,5.6206055-3.5128784,5.6206055-0.2341919c0,2.1077271-1.1709595,3.9812622-1.8735352,6.0889893
		c-1.6393433,4.9180298-3.7471008,9.8360748-4.9180603,14.7541046c-0.4683838,5.6206055,0,12.1779785,0,17.798584
		c0,1.6393433,0,3.9812622-1.8735352,4.6838379c-1.8735352,0.9367676-3.5128784-0.7025757-3.7471008-2.8103027
		c-0.4683533-6.557373,0.2342224-14.0515137-0.4683533-20.1405182c-1.4051819-5.6206207-4.449646-12.8805695-6.3231812-18.5011749
		c0-0.7025757-0.4683838-1.6393433-0.4683838-2.5761108c0-1.6393433,1.8735352-2.1077271,3.7471008-0.9367676
		C435.7424011,233.9859314,435.7424011,233.9859314,435.7424011,233.9859467z"></path>
	<path style="fill:#FFFFF0;" d="M102.2529297,228.1311493c7.7283401-1.8735352,6.5573807,4.449646,3.9812698,9.6018677
		c-2.3419189,5.1522369-5.1522293,11.9438019-7.2599487,17.3302155c-1.4051514,3.0444946-2.5761108,5.8547974-3.9812698,9.1334839
		c-2.5761108,5.620636-4.2154541,11.4754333-10.0702515,11.9438171
		c-9.8360748,0.2341614-11.4754105-14.7541199-16.159256-22.9508362
		c-2.5761108-6.0889893-5.6206055-12.8805542-7.9625244-18.7353516c-0.4683876-1.4051666-0.9367676-3.2787018-0.2341957-4.4496613
		c0.9367676-2.3419189,5.1522255-2.3419189,7.7283363-0.4683838c6.0889969,5.8548126,8.4309158,16.6276398,12.1779861,24.1217804
		c1.1709595,2.8103027,3.5128784,8.4309082,5.8547974,3.9812622c2.8103104-5.1522217,6.557373-14.9882812,9.6018753-21.7798462
		c1.4051437-2.8103027,3.0444946-5.6206055,5.8547974-7.0257568h0.4683838l0,0V228.1311493z"></path>
	<path style="fill:#FFFFF0;" d="M116.0702667,275.4379272c-0.4683838,0-0.7025757-0.4683838-0.9367752-0.9367676
		c-0.2341843-6.0889893,0-17.0960083,0-24.8243561v-20.1405182c0-1.8735352,2.3419266-1.6393433,3.9812698-1.8735352
		c2.5761108,0,5.8547974-0.4683838,5.6206131,3.0444946v42.6229553c0.4683838,3.5128784-6.3231888,2.3419189-8.1967239,2.1077271
		h-0.2341843H116.0702667z"></path>
	<path style="fill:#FFFFF0;" d="M171.5737762,263.9625244c2.8102875-4.2154541-2.1077423-7.9625244-6.3231812-7.2599487
		c-6.5573883,0-12.8805695,0-19.2037506,0c-2.5761108,0-2.8103027,2.8103027-2.8103027,4.9180298s0,3.7470703,1.6393433,4.2154541
		c4.2154541,0.4683838,12.8805542,0,17.7985992,0c3.5128784,0,6.7915802,0,8.4309082-1.8735352h0.2341919H171.5737762z
		 M171.5737762,244.5245819c2.3419189-3.5128784-1.4051514-7.7283325-5.3864288-7.4941406c-5.6206055,0-13.817337,0-19.9063263,0
		c-4.2154541-0.2341919-3.5128784,7.4941406-2.3419189,8.899292c2.1077271,1.4051514,4.9180298,0.4683838,8.6651154,0.7025757
		c5.6206055-0.7025757,14.5198975,1.6393433,18.5011597-1.8735352h0.2341919L171.5737762,244.5245819z M181.644043,242.4168701
		c-0.2341919,3.0444946-2.5761108,6.0889893-2.3419189,9.1334839c0,4.9180298,2.5760956,9.8360596,1.1709595,14.2857056
		c-4.6838531,12.178009-20.6089172,9.3676758-31.1475525,9.8360901c-3.5128784,0-7.4941406,0-11.007019-0.4684143
		c-4.2154541-0.4683838-5.1522217-4.2154541-5.1522217-7.9625244v-32.7868805c0-2.8103027,1.1709595-5.6206055,4.2154541-6.557373
		c3.9812622-1.1709595,8.4309082-0.7025757,12.4121704-0.7025757c11.9438019,0,30.4449768-1.8735352,31.6159363,14.2857056
		v0.4683838l0,0L181.644043,242.4168701z"></path>
	<path style="fill:#FFFFF0;" d="M218.6463776,241.2459106c-4.2154694,2.8103027-11.9438019-1.8735352-16.6276398-0.468399
		c-3.7470703,1.1709595-2.8103027,5.6206207-0.2341919,7.4941559c3.0445099,2.8103027,10.0702667,2.8103027,13.5831451,5.3864136
		c3.7470703,2.1077271,4.6838531,7.9625244-0.9367676,8.4309082c-1.6393433,0-3.9812622-0.2341919-6.0889893-0.7025757
		c-6.7915649-2.1077271-12.6463776,2.1077271-6.3231812,7.4941406c3.7470703,3.0444946,12.6463776,2.8103027,15.6908569,5.8547974
		c3.7470703,3.5128784,3.2787018,11.7096252-3.9812469,9.8360901c-5.1522217-1.1709595-15.2224884-3.278717-20.6089172-4.4496765
		c-2.3419189-0.7025757-3.5128784-1.4051208-3.7470703-3.7470703c-0.4683685-9.8360596,0-34.6604004,0-44.4964752
		c0-4.2154541,1.6393433-4.449646,5.3864288-3.7470703c4.4496613,0.9367676,12.6463776,2.8103027,18.0327759,3.9812622
		c4.2154694,0.4683838,9.367691,4.6838379,6.0889893,8.8993073l0,0L218.6463776,241.2459106z"></path>
	<path style="fill:#FFFFF0;" d="M259.3957825,247.3348999c10.7728271,0.9367676,18.0327759,14.5198975,9.8360596,22.7166138
		c-5.6206055,6.7915955-17.5643921,5.620636-26.4636993,5.620636c-7.2599487,0-12.6463776-1.8735352-16.159256-7.0257874
		c-0.9367676-1.4051514-1.4051514-3.0444946-0.7025909-4.449646c3.5128937-4.2154541,10.3044586,1.4051514,15.2224884,1.4051514
		c4.9180298,0.4683838,20.8431091,2.3419189,20.1405029-4.9180298c-0.2341919-1.8735352-3.0444946-3.5128784-7.0257568-3.9812622
		c-11.007019-0.4683838-27.6346588,1.1709595-29.7423706-13.1147461
		c-1.4051514-9.8360748,8.1967163-16.159256,17.0960236-15.9250641c10.0702667,0,28.1030426-2.1077271,29.9765778,10.5386353
		c-1.8735352,5.3864288-8.899292,0.7025757-12.6463623,0c-4.9180298-1.4051514-20.1405182-2.8103027-22.9508362,2.1077423
		c-2.3419189,9.3676758,17.7985992,5.3864136,22.9508362,7.0257568
		C258.9273987,247.3348999,259.3957825,247.3348999,259.3957825,247.3348999z"></path>
</g>
<g>
</g>
<g>
</g>
<g>
</g>
<g>
</g>
<g>
</g>
<g>
</g>
<g>
</g>
<g>
</g>
<g>
</g>
<g>
</g>
<g>
</g>
<g>
</g>
<g>
</g>
<g>
</g>
<g>
</g>
</svg></svg></g></g></svg></g></svg>